<svg width="105" height="51" viewBox="0 0 105 51" fill="none" xmlns="http://www.w3.org/2000/svg">
<g clip-path="url(#clip0)">
<path d="M91.5781 23.3831L92.0624 20.9805H98.0659L98.5503 23.3831H101.677L96.7531 0.75308C96.7106 0.516205 96.5534 0.355469 96.3155 0.355469H93.9319C93.694 0.355469 93.575 0.516205 93.4943 0.75308L88.502 23.3831H91.5781ZM95.0833 6.49307H95.2023L97.5094 18.2099H92.619L95.0833 6.49307Z" fill="white"/>
<path d="M76.2655 23.3831V16.0315C76.2655 15.875 76.3462 15.7946 76.5034 15.7946H78.135C78.4918 15.7946 78.8912 15.7946 79.2481 15.7566L81.5425 23.3831H84.8608L82.1925 14.9656C84.2999 13.8954 85.4938 11.717 85.4938 8.11735C85.4938 2.41543 82.9488 0.355469 78.1774 0.355469H73.4443C73.2064 0.355469 73.0449 0.516205 73.0449 0.75308V23.3831H76.2655ZM76.2655 3.56174C76.2655 3.40523 76.3462 3.32486 76.5034 3.32486H78.2114C81.0751 3.32486 82.269 4.47117 82.269 8.11735C82.269 11.7974 80.9944 12.9056 78.2114 12.9056H76.5034C76.342 12.9056 76.2655 12.8295 76.2655 12.6687V3.56174Z" fill="white"/>
<path d="M57.4134 3.32486H61.8661C62.0276 3.32486 62.104 3.40523 62.104 3.56174V23.3831H65.3246V3.56174C65.3246 3.40523 65.4053 3.32486 65.5626 3.32486H70.0153C70.2532 3.32486 70.4147 3.16413 70.4147 2.92725V0.75308C70.4147 0.516205 70.2574 0.355469 70.0153 0.355469H57.4092C57.1712 0.355469 57.0098 0.516205 57.0098 0.75308V2.93148C57.014 3.16836 57.1712 3.32486 57.4134 3.32486Z" fill="white"/>
<path d="M46.5838 23.3829C46.4606 23.1841 46.3501 22.9684 46.2694 22.7231C45.989 21.9321 45.9125 21.3399 45.9125 13.8149C45.9125 6.28987 45.9932 5.69769 46.2694 4.90669C46.6688 3.68002 47.663 3.00746 49.0948 3.00746C50.5267 3.00746 51.5591 3.68002 51.9585 4.90669C52.1964 5.69769 52.2771 6.2941 52.2771 13.8149C52.2771 21.3357 52.1964 21.9321 51.9585 22.7231C51.8778 22.9684 51.7673 23.1841 51.6398 23.3829H55.0983C55.434 22.2747 55.536 20.9211 55.536 13.8149C55.536 6.17567 55.417 5.18587 55.0176 3.99726C54.2231 1.42548 52.1539 0 49.0948 0C46.0314 0 44.0048 1.42548 43.1678 4.00149C42.7684 5.1901 42.6494 6.17989 42.6494 13.8191C42.6494 20.9211 42.7514 22.2747 43.087 23.3872H46.5838V23.3829Z" fill="white"/>
<path d="M22.3525 23.3831L22.8368 20.9805H28.8404L29.3247 23.3831H32.4518L27.5275 0.75308C27.485 0.516205 27.3278 0.355469 27.0899 0.355469H24.7063C24.4684 0.355469 24.3494 0.516205 24.2687 0.75308L19.2764 23.3831H22.3525ZM25.8577 6.49307H25.9767L28.2838 18.2099H23.3934L25.8577 6.49307Z" fill="white"/>
<path d="M9.54709 23.3831V0.75308C9.54709 0.516205 9.38988 0.355469 9.1477 0.355469H6.72165C6.48372 0.355469 6.32227 0.516205 6.32227 0.75308V23.3831H9.54709Z" fill="white"/>
<path d="M91.1319 51.0002L91.5313 49.0332H97.6325L98.0319 51.0002H101.202L96.2984 28.4717C96.2559 28.2306 96.0987 28.0698 95.8566 28.0698H93.4305C93.1883 28.0698 93.0651 28.2306 92.9886 28.4717L88.0176 51.0002H91.1319ZM94.5989 34.3047H94.7179L97.0632 46.2161H92.0921L94.5989 34.3047Z" fill="white"/>
<path d="M74.6719 50.9998V31.3308C74.6719 31.17 74.7527 31.0897 74.9141 31.0897H77.1787C79.0397 31.0897 80.0891 31.813 80.6542 33.4246C81.0196 34.5497 81.1811 36.0386 81.1811 41.7533C81.1811 47.4679 81.0196 48.9568 80.6542 50.0862C80.531 50.4373 80.3781 50.7376 80.2081 51.0041H83.9003C84.3422 49.5405 84.4951 47.6455 84.4951 41.7533C84.4951 35.6368 84.3337 33.8264 83.8493 32.3375C82.9613 29.5204 80.9814 28.0737 77.5059 28.0737H71.804C71.5618 28.0737 71.4004 28.2345 71.4004 28.4756V51.0041H74.6719V50.9998Z" fill="white"/>
<path d="M56.8953 51.0002L57.2946 49.0332H63.4001L63.7995 51.0002H66.9691L62.066 28.4717C62.0235 28.2306 61.8663 28.0698 61.6241 28.0698H59.1981C58.9559 28.0698 58.8327 28.2306 58.7562 28.4717L53.7852 51.0002H56.8953ZM60.3665 34.3047H60.4855L62.8308 46.2161H57.8597L60.3665 34.3047Z" fill="white"/>
<path d="M40.4399 51.0002V44.0039C40.4399 43.8432 40.5206 43.7628 40.682 43.7628H42.3391C42.7002 43.7628 43.1081 43.7628 43.4692 43.7247L45.6574 51.0002H49.0224L46.4604 42.9168C48.6018 41.8297 49.8127 39.6175 49.8127 35.9544C49.8127 30.1594 47.2252 28.0698 42.3773 28.0698H37.5677C37.3255 28.0698 37.1641 28.2306 37.1641 28.4717V51.0002H40.4399ZM40.4399 31.3311C40.4399 31.1703 40.5206 31.09 40.682 31.09H42.4198C45.3302 31.09 46.5411 32.2574 46.5411 35.9586C46.5411 39.7021 45.2495 40.8272 42.4198 40.8272H40.682C40.5206 40.8272 40.4399 40.7469 40.4399 40.5861V31.3311Z" fill="white"/>
<path d="M31.9125 51.0002V28.4717C31.9125 28.2306 31.7511 28.0698 31.5089 28.0698H29.0404C28.7982 28.0698 28.6367 28.2306 28.6367 28.4717V51.0002H31.9125Z" fill="white"/>
<path d="M9.36028 51.0002V36.077H9.56422L13.728 50.1626C13.8087 50.4037 13.9277 50.5645 14.2124 50.5645H15.5465C15.7887 50.5645 15.9501 50.4037 16.0309 50.1626L20.1947 36.077H20.3944V51.0002H23.3855V28.4717C23.3855 28.2306 23.224 28.0698 22.9819 28.0698H20.5176C20.1947 28.0698 19.9907 28.1883 19.91 28.4717L15.0196 45.2136H14.8582L9.84464 28.4717C9.76391 28.1883 9.60246 28.0698 9.27955 28.0698H6.77277C6.53059 28.0698 6.36914 28.2306 6.36914 28.4717V51.0002H9.36028Z" fill="white"/>
</g>
<defs>
<clipPath id="clip0">
<rect width="105" height="51" fill="white"/>
</clipPath>
</defs>
</svg>
